<svg xmlns="http://www.w3.org/2000/svg" width="98" height="57" viewBox="0 0 98 57">
    <path fill="#333" fill-rule="nonzero" d="M24.362 23.856a9.104 9.104 0 0 0-5.048-3.15v-.149c0-.6-.297-1.05-.89-1.05h-1.93c-1.04-2.7-2.673-5.399-4.306-7.798.149-.15.446-.3.594-.6 3.118 4.349 6.087 5.549 7.126 3.45 1.782-4.05-3.86-4.2-6.829-3.9.148-.3.148-.6 0-1.05 3.415.15 8.76-.15 7.275-3.6-.594-1.649-4.009-2.249-8.017 2.4-.297-.45-.446-.45-.594-.6 1.484-.75 5.493-5.698 2.82-7.348-2.078-1.5-4.899.6-3.86 7.198-.296-.15-.593 0-.89.15.148-1.95-1.485-8.848-5.048-6.748-1.485.75-1.782 3.749 4.454 7.498a.826.826 0 0 0-.445.75C.757 4.36-.134 8.11.014 9.91c0 1.5 1.93 3.15 8.908.3l.297.6c-2.672.9-8.166 4.199-6.087 6.599 3.415 3.899 5.493-2.85 6.68-5.55.15 0 .298 0 .595.15-2.821 4.8-1.485 8.699 1.039 8.249v.3c-2.227.45-4.009 1.65-5.196 3.3-.594 0-1.188.6-1.188 1.35 0 .449.148.749.594 1.049V57h19.448V26.256c.446-.15.743-.6.743-1.05-.149-.75-.743-1.35-1.485-1.35zm-9.353 2.55h8.76v7.798l-1.782-2.25c-3.415-2.999-7.72-3.299-11.283-.6-.446.3-.891.75-1.337 1.05 1.04-2.549 3.118-4.498 5.642-5.998zm-3.563-14.547c1.336 2.25 2.227 4.799 3.118 7.348h-1.782c1.485-1.8-1.188-6.449-1.782-7.348.297.15.297.15.446 0zm1.04 9.748h5.195c1.782.15 3.563 1.05 5.048 2.25H7.883a9.49 9.49 0 0 1 4.602-2.25zM13.82 55.5c-3.86-2.25-6.532-8.998-6.384-15.297 0-.45 0-1.05.149-1.5.148-.6.148-1.5.297-2.1.445-.749 1.039-1.499 1.633-2.099 2.672-2.25 6.68-2.7 9.798-1.05l1.188-2.25.297.45c1.633 2.55 2.82 6.45 2.079 9.449-1.93 2.1-5.494 2.1-8.017 1.5l1.039-2.25c-2.376-.6-4.9.15-6.533 2.1l-.148.15c-.594 2.7-.149 5.699 1.485 8.098l1.187-2.1c1.782.6 4.157 1.8 5.939 1.65a7.986 7.986 0 0 0 6.087-3.449V55.5H13.82zm74.826-35.693H98v3.75h-2.524v14.547h-4.305V23.556h-2.524v-3.749zm-12.768 8.249l-2.375-8.249H69.94v18.297h-.593L66.97 19.807H61.33V12.61h1.187a6.1 6.1 0 0 0 2.376-.45c.594-.15 1.039-.6 1.336-1.2.297-.75.445-1.65.297-2.55V6.76c0-.9 0-1.65-.149-2.549-.148-.6-.297-1.05-.594-1.35-.445-.45-1.039-.6-1.484-.9-.891-.15-1.782-.3-2.821-.3h-4.602v18.297h3.86l-2.227 18.147h-.446v-3.6H55.54V19.957h.149v-3.75h-3.266V12.16h2.82v-3.45h-2.82V5.26h3.117V1.512h-7.571v18.446h3.266v18.147h-3.712V56.4h7.869v-3.6h-3.266v-4.048h2.82v-3.45h-2.82v-3.45h3.118v-3.598h2.672L55.688 56.55h4.75l.15-3.3h1.632l.149 3.3h4.454l-2.524-18.296h-1.336l.148-3.3h1.485l.148 3.3h2.376V56.55h3.86v-8.548l2.375 8.398h3.86V38.104h2.079V19.807H75.73v8.249h.149zM61.329 4.66c.446 0 .891 0 1.188.15.149.3.297.75.297 1.2v1.5c0 .45 0 .9-.148 1.35-.149.15-.594.3-.891.3h-.297l-.148-4.5zM60.29 49.801c.149-1.65.446-4.199.891-7.648.149 3.15.445 5.549.594 7.648H60.29zm2.821-18.146c.149-1.65.446-4.2.89-7.649.15 3.15.446 5.55.595 7.649H63.11zm10.541 14.697l-2.375-8.248h2.375v-8.249l2.227 8.249H73.8l-.148 8.248zm-29.841-8.248h1.336v-7.349h1.188c.742 0 1.484-.15 2.227-.45a1.62 1.62 0 0 0 1.187-1.2c.149-.75.297-1.65.297-2.55v-1.499c0-.9 0-1.65-.148-2.55-.149-.6-.297-1.05-.594-1.5-.297-.449-.89-.749-1.485-.899-.593-.15-1.039-.15-1.484-.15h.445v-3.75h-3.266V12.16h2.82v-3.45h-2.82V5.26h3.118V1.512H39.06v18.446h1.93v18.147h-1.485V56.4h7.275v-3.6h-2.82V38.105h-.15zm2.672-12.148c.149.45 0 .9-.148 1.35-.149.15-.594.3-.891.3h-.297v-4.65c.297 0 .742.15 1.04.3.148.3.296.75.148 1.2l.148 1.5zm38.898 4.5v4.048h3.117v3.6h-7.423V19.807h7.275v3.75h-2.97v3.449h2.673v3.45h-2.672zM35.497 9.908l2.672-8.398h-4.157l-2.227 7.198V1.511h-4.602v36.443h3.266c-.148.15-.297.15-.594.15-.742.3-1.336.75-1.781 1.5-.446.6-.594 1.2-.743 1.799-.148 1.05-.148 2.1-.148 3.15V49.8c0 1.35.148 2.7.445 4.05.297.9.891 1.65 1.782 2.1 1.04.6 2.227.75 3.266.75 1.04 0 2.227-.15 3.118-.9.742-.45 1.484-1.2 1.781-2.1.297-1.35.446-2.7.446-4.05v-.75h-4.603v2.25c0 .6 0 1.35-.148 1.8-.148.3-.594.6-1.04.3l-.296-.3c-.149-.6-.149-1.05-.149-1.8v-8.398c0-.6 0-1.2.149-1.8.148-.3.445-.45.742-.45.149 0 .594.15.594.3.148.6.148 1.05.148 1.8v3.3h4.454v-1.8c.149-1.35 0-2.55-.297-3.75-.297-.9-.89-1.5-1.781-1.95-.446-.15-.89-.45-1.336-.6.297 0 .594-.15 1.039-.15.594-.15 1.04-.3 1.336-.6.297-.3.594-.749.742-1.349.149-1.05.149-2.25.149-3.3v-6.448c0-1.2 0-2.25-.149-3.45-.148-1.35-1.187-2.399-2.523-2.699-.297-.15-.594-.15-1.04-.15h4.306L35.497 9.91zm-3.712 13.048c.297 0 .743 0 1.04.15.148.15.297.3.297.6.148.6.148 1.05.148 1.5v7.198c.148.75 0 1.5-.148 2.25-.149.3-.594.45-1.188.45l-.149-12.148zm0-3.15V12.16l1.782 7.798c-.445-.15-1.04-.15-1.782-.15z"/>
</svg>
