<svg xmlns="http://www.w3.org/2000/svg" width="156" height="24" viewBox="0 0 156 24">
    <g fill="#333" fill-rule="nonzero">
        <path d="M12.098 23.473V8.78c0-2.149.172-4.898.172-4.898h-.086L9.092 23.473H6.087L2.909 3.882h-.086s.172 2.663.172 4.898v14.693H.161V.874H4.8l2.318 14.264c.258 1.633.344 4.382.344 4.382h.086s.085-2.75.343-4.382L10.38.874h4.552v22.6h-2.834zM22.746 3.624v19.85h-3.005V3.623h-3.264V.874h9.532v2.75zM34.683 23.473L30.13 6.46h-.086c.258 1.633.344 3.266.344 4.898v12.116h-2.748V.874h3.35l4.55 17.014h.086c-.171-1.633-.343-3.265-.343-4.898V.874h2.748v22.6h-3.35zM40.522 14.88v-2.835h5.496v2.835zM60.702 23.473H57.01l-1.546-12.46c-.172-1.632-.43-4.382-.43-4.382h-.085s-.172 2.75-.43 4.383l-1.46 12.46h-3.692L46.533.873h3.006l1.374 14.178c.172 1.633.343 4.383.343 4.383h.086s.172-2.836.43-4.383L53.575.874h3.006l1.803 14.178c.172 1.633.43 4.383.43 4.383h.085s.172-2.836.344-4.383L60.617.874h3.005l-2.92 22.6zM70.234 23.215c-3.005 0-4.808-1.804-4.808-4.898V4.913c0-3.094 1.889-4.898 4.808-4.898 3.006 0 4.895 1.804 4.895 4.898v13.49c0 3.094-1.889 4.812-4.895 4.812zm1.804-18.13c0-1.633-.773-2.32-1.89-2.32-1.116 0-1.889.687-1.889 2.32v13.06c0 1.633.773 2.32 1.89 2.32 1.116 0 1.889-.687 1.889-2.32V5.086zM83.888 23.473v-7.647c0-1.461-.6-2.32-1.803-2.32h-1.632v9.967h-3.005V.874h4.637c3.435 0 4.809 2.062 4.809 5.07v2.75c.086 1.374-.687 2.75-1.89 3.437 1.289.515 1.89 1.976 1.89 3.78v7.648h-3.006v-.086zm0-17.53c0-1.46-.6-2.32-1.803-2.32h-1.632v7.39h1.632c1.288 0 1.803-.859 1.803-2.32v-2.75zM89.47 23.473V.874h3.006V20.81h4.465v2.664zM103.811 23.473h-4.895V.874h4.895c3.435 0 4.81 1.977 4.81 4.898v12.803c0 2.922-1.375 4.898-4.81 4.898zm1.803-17.53c0-1.46-.6-2.32-1.803-2.32h-1.89V20.81h1.89c1.288 0 1.803-.859 1.803-2.32V5.944zM110.939 23.387v-3.609h3.435v3.61zM121.673 23.215c-3.006 0-4.723-1.804-4.723-4.898V4.913c0-3.094 1.717-4.898 4.723-4.898 3.005 0 4.637 1.804 4.637 4.898V7.49h-3.005V5.085c0-1.633-.602-2.32-1.718-2.32s-1.717.687-1.717 2.32v13.147c0 1.632.6 2.32 1.717 2.32 1.116 0 1.718-.688 1.718-2.32v-2.406h3.005v2.577c0 3.094-1.632 4.812-4.637 4.812zM133.008 23.215c-3.005 0-4.895-1.804-4.895-4.898V4.913c0-3.094 1.89-4.898 4.895-4.898 3.006 0 4.895 1.804 4.895 4.898v13.49c0 3.094-1.89 4.812-4.895 4.812zm1.89-18.13c0-1.633-.773-2.32-1.89-2.32-1.116 0-1.889.687-1.889 2.32v13.06c0 1.633.773 2.32 1.89 2.32 1.116 0 1.888-.687 1.888-2.32V5.086zM152.845 23.473V8.78c0-2.149.172-4.898.172-4.898h-.086l-3.177 19.591h-3.006l-3.091-19.591s.171 2.663.171 4.898v14.693h-2.833V.874h4.55l2.32 14.264c.257 1.633.343 4.382.343 4.382h.086s.086-2.75.343-4.382l2.49-14.264h4.552v22.6h-2.834z"/>
    </g>
</svg>
